<svg xmlns="http://www.w3.org/2000/svg" viewBox="0 0 186.3511 91.2784"><g id="Layer_2" data-name="Layer 2"><g id="Components"><g id="_40a33894-64f4-47bd-8765-b1478ba9b421_1" data-name="40a33894-64f4-47bd-8765-b1478ba9b421@1"><path d="M9.8076,44.1772c1.3887,6.5962,6.6831,10.2417,13.8867,10.2417,4.9473,0,8.6792-1.8227,11.1963-5.3813l7.7241,4.5132c-4.2524,6.3359-10.5883,9.46-19.0073,9.46-7.03,0-12.7583-2.17-17.0981-6.4228A22.2392,22.2392,0,0,1,0,40.1846a22.2508,22.2508,0,0,1,6.4229-16.23c4.2524-4.4263,9.8071-6.5962,16.49-6.5962a20.34,20.34,0,0,1,15.6225,6.6831,23.2056,23.2056,0,0,1,6.1622,16.23,25.46,25.46,0,0,1-.3467,3.9057Zm25.43-7.6376c-1.3018-7.03-6.249-10.6753-12.4111-10.6753-6.9434,0-11.8038,4.0791-13.106,10.6753Z" style="fill:#00ab55"/><path d="M123.2515,48.083l8.5918-5.0342c2.4306,6.8565,7.4648,10.2417,15.1025,10.2417,7.5508,0,11.2822-3.2114,11.2822-7.9848a6.3,6.3,0,0,0-3.0371-5.6416c-1.9961-1.3018-5.6416-2.7774-10.7627-4.34C138.6138,33.5889,135.75,32.46,131.67,29.77c-3.9062-2.7773-5.9023-6.77-5.9023-12.2373q0-8.0719,5.7285-12.7588A20.7047,20.7047,0,0,1,145.2964,0a22.497,22.497,0,0,1,21.1777,13.3662l-8.4189,4.86c-2.5176-5.6416-6.7705-8.5059-12.7588-8.5059-5.8145,0-9.5469,2.9512-9.5469,7.5508,0,4.5137,2.9512,6.5967,12.2373,9.46,2.3438.7813,3.9932,1.3023,5.0342,1.7359,1.1279.3471,2.6035.9551,4.5137,1.7358a16.7436,16.7436,0,0,1,4.4257,2.43c3.211,2.5171,6.6836,6.6831,6.2491,12.498a15.9974,15.9974,0,0,1-5.9883,13.1055c-3.9063,3.2114-9.1133,4.7739-15.5361,4.7739C134.9683,63.0112,126.4624,57.37,123.2515,48.083Z" style="fill:#00ab55"/><path d="M176.37,1.1284h9.9815V61.8828H176.37Z" style="fill:#00ab55"/><path d="M66.6923,29.0379A21.1169,21.1169,0,0,1,88.0962,9.7207a20.5513,20.5513,0,0,1,15.2754,6.249A20.4073,20.4073,0,0,1,109.5,29.0379h10.01A29.8533,29.8533,0,0,0,110.4019,9.2,30.13,30.13,0,0,0,88.0962,0,30.4582,30.4582,0,0,0,65.7036,9.2a30.1183,30.1183,0,0,0-9.0215,19.8377Z" style="fill:#00ab55"/><path d="M109.35,35.1011A21.0674,21.0674,0,0,1,88.0962,53.2905,20.8871,20.8871,0,0,1,66.842,35.1011H56.7747a31.0807,31.0807,0,0,0,31.3215,27.91,30.3839,30.3839,0,0,0,22.3057-9.1133,30.1715,30.1715,0,0,0,9.0147-18.7968Z" style="fill:#00ab55"/><path d="M7.7011,79.2519h2.4478v9.4843H7.7011v-1.12A3.7122,3.7122,0,0,1,4.61,89.0017a4.3073,4.3073,0,0,1-3.2627-1.4412,5.3708,5.3708,0,0,1,0-7.1142A4.3268,4.3268,0,0,1,4.61,78.9855a3.7146,3.7146,0,0,1,3.0916,1.3851Zm-2.6365,7.417a2.5415,2.5415,0,0,0,1.8776-.74,2.6155,2.6155,0,0,0,.7589-1.9346,2.5445,2.5445,0,0,0-.7589-1.916,2.486,2.486,0,0,0-1.8776-.7589,2.486,2.486,0,0,0-1.8776.7589,2.6023,2.6023,0,0,0-.74,1.916,2.676,2.676,0,0,0,.74,1.9346A2.5415,2.5415,0,0,0,5.0646,86.6689Z" style="fill:#444b53"/><path d="M20.5258,86.0427c0,1.5935-1.1384,2.6935-3.1674,2.6935H12.37V79.2519H16.979c1.9916,0,3.1487,1.08,3.1487,2.6739a2.3013,2.3013,0,0,1-.93,1.9542A2.2284,2.2284,0,0,1,20.5258,86.0427Zm-5.8619-4.78V82.97h2.087c.7019,0,1.043-.285,1.043-.8542s-.3411-.8533-1.043-.8533Zm2.4095,5.4067c.7018,0,1.0626-.3037,1.0626-.9113,0-.5308-.3981-.8532-1.0626-.8532H14.6639v1.7645Z" style="fill:#444b53"/><path d="M29.29,79.2519v2.3514H26.3306v7.1329H23.8838V81.6033H20.8866V79.2519Z" style="fill:#444b53"/><path d="M34.7356,89.0017a4.9554,4.9554,0,1,1,3.5664-1.4412A4.85,4.85,0,0,1,34.7356,89.0017Zm0-2.39a2.4872,2.4872,0,0,0,1.84-.74,2.7527,2.7527,0,0,0,0-3.7562,2.66,2.66,0,0,0-3.6805,0,2.8077,2.8077,0,0,0,0,3.7562A2.4889,2.4889,0,0,0,34.7356,86.6119Z" style="fill:#444b53"/><path d="M51.3538,79.2519v9.4843H48.9827V83.1968l-2.4094,3.7945H46.27L43.8414,83.16v5.5767H41.49V79.2519h2.4084l2.5235,3.9833,2.5225-3.9833Z" style="fill:#444b53"/><path d="M60.8007,79.2519h2.4478v9.4843H60.8007v-1.12a3.712,3.712,0,0,1-3.0916,1.3851,4.3074,4.3074,0,0,1-3.2627-1.4412,5.3708,5.3708,0,0,1,0-7.1142,4.3269,4.3269,0,0,1,3.2627-1.4608,3.7145,3.7145,0,0,1,3.0916,1.3851Zm-2.6365,7.417a2.5415,2.5415,0,0,0,1.8776-.74,2.6155,2.6155,0,0,0,.7589-1.9346,2.5445,2.5445,0,0,0-.7589-1.916,2.7021,2.7021,0,0,0-3.7552,0,2.6027,2.6027,0,0,0-.74,1.916,2.6764,2.6764,0,0,0,.74,1.9346A2.5415,2.5415,0,0,0,58.1642,86.6689Z" style="fill:#444b53"/><path d="M72.9422,79.2519v2.3514H69.9833v7.1329H67.5365V81.6033H64.5392V79.2519Z" style="fill:#444b53"/><path d="M81.1,79.2519H82.921v9.4843h-2.39v-5.387l-4.458,5.387H74.2526V79.2519h2.39v5.387Z" style="fill:#444b53"/><path d="M92.1606,86.1567c0,1.6122-1.4038,2.845-3.8319,2.845a3.9269,3.9269,0,0,1-3.9263-2.2758l1.9917-1.1767a1.867,1.867,0,0,0,1.9533,1.29c.9112,0,1.4234-.3795,1.4234-.986,0-.5879-.3795-.8729-1.12-.8729H87.3044v-2.086h1.0243c.74,0,1.1-.2851,1.1-.873,0-.55-.4738-.91-1.1757-.91a1.8257,1.8257,0,0,0-1.7646,1.1944l-1.9729-1.1374a4.29,4.29,0,0,1,6.28-1.3477,2.5319,2.5319,0,0,1,.9673,1.9926,2.3372,2.3372,0,0,1-1.043,2.086A2.3427,2.3427,0,0,1,92.1606,86.1567Z" style="fill:#444b53"/><path d="M100.9056,79.2519h2.4478v9.4843h-2.4478v-1.12a3.712,3.712,0,0,1-3.0916,1.3851,4.3074,4.3074,0,0,1-3.2627-1.4412,5.3708,5.3708,0,0,1,0-7.1142,4.3269,4.3269,0,0,1,3.2627-1.4608,3.7145,3.7145,0,0,1,3.0916,1.3851Zm-2.6365,7.417a2.5415,2.5415,0,0,0,1.8776-.74,2.6155,2.6155,0,0,0,.7589-1.9346,2.5445,2.5445,0,0,0-.7589-1.916,2.7021,2.7021,0,0,0-3.7552,0,2.6027,2.6027,0,0,0-.74,1.916,2.6764,2.6764,0,0,0,.74,1.9346A2.5415,2.5415,0,0,0,98.2691,86.6689Z" style="fill:#444b53"/><path d="M113.92,86.4408h1.5935v4.8376h-2.39V88.7362h-7.55V79.2519h2.4467v7.1889h3.4525V79.2519H113.92Z" style="fill:#444b53"/><path d="M123.9,79.2519H125.72v9.4843h-2.39v-5.387l-4.458,5.387H117.052V79.2519h2.39v5.387Z" style="fill:#444b53"/><path d="M135.5665,79.2519v9.4843h-2.3908V85.7773h-.8532l-2.1814,2.9589h-2.8272l2.3721-3.244a3.258,3.258,0,0,1-1.9926-2.9776,3.1817,3.1817,0,0,1,.9486-2.2954,3.3156,3.3156,0,0,1,2.4851-.9673Zm-4.25,2.1814a1.1462,1.1462,0,0,0-1.2327,1.157,1.1282,1.1282,0,0,0,1.2327,1.1187h1.8589V81.4333Z" style="fill:#444b53"/><path d="M153.6838,89.0017a6.9049,6.9049,0,1,1,4.8936-11.7984,6.5958,6.5958,0,0,1,2.0113,4.8935,6.8348,6.8348,0,0,1-6.9049,6.9049Zm0-2.5609a4.1426,4.1426,0,0,0,3.0533-1.214,4.5874,4.5874,0,0,0,0-6.26,4.399,4.399,0,0,0-6.1076,0,4.5874,4.5874,0,0,0,0,6.26A4.1467,4.1467,0,0,0,153.6838,86.4408Z" style="fill:#444b53"/><path d="M163.7766,87.01a6.9055,6.9055,0,0,1,4.9516-11.818,6.5951,6.5951,0,0,1,5.71,3.13l-2.2571,1.3094a3.8156,3.8156,0,0,0-3.4524-1.8973,4.1716,4.1716,0,0,0-3.13,1.214,4.7761,4.7761,0,0,0,0,6.2787,4.1716,4.1716,0,0,0,3.13,1.214,3.8335,3.8335,0,0,0,3.4524-1.8776l2.2571,1.3085a6.5724,6.5724,0,0,1-5.71,3.13A6.6632,6.6632,0,0,1,163.7766,87.01Z" style="fill:#444b53"/><path d="M183.7342,88.7362v-8.1l-5.6917,8.1h-1.9917V75.4574h2.6179v8.1189l5.6907-8.1189h1.9917V88.7362Z" style="fill:#444b53"/></g></g></g></svg>